#!OML:ASF F:\VICON\USERDATA\INSTALL\rory3\rory3.ASF
:FULLY-SPECIFIED
:DEGREES
2650
root -1.86951 17.9688 0.606694 10.1692 -12.4835 7.62532
lowerback 8.88391 -3.66274 -1.7061
upperback 3.62412 -4.92199 5.80653
thorax -0.5257 -2.5495 7.47441
lowerneck -23.0616 -1.54112 -9.39969
upperneck 27.2492 0.410977 2.87837
head 12.9601 -0.435684 2.77064
rclavicle -4.21423e-014 -9.54166e-015
rhumerus -9.56837 -3.34639 -53.0467
rradius 106.084
rwrist 48.6376
rhand -62.4767 -15.47
rfingers 7.12502
rthumb -34.5063 -42.1399
lclavicle -4.21423e-014 -9.54166e-015
lhumerus -4.16038 -34.7034 93.1479
lradius 62.7816
lwrist -15.0552
lhand -34.7073 37.3796
lfingers 7.12502
lthumb -7.86229 -292.787
rfemur -29.5319 8.17314 7.07561
rtibia 33.7736
rfoot -11.3369 3.18253
rtoes 3.29901
lfemur -13.2754 5.44444 -18.8267
ltibia 20.0276
lfoot -1.26722 22.3072
ltoes -28.182
2651
root -1.8759 17.9672 0.617324 10.0898 -12.7605 7.75295
lowerback 8.89245 -3.84962 -1.83623
upperback 3.56711 -5.17874 5.95169
thorax -0.526256 -2.68179 7.72729
lowerneck -22.8341 -1.19229 -9.59147
upperneck 26.9202 0.925765 2.96503
head 12.7392 -0.207063 2.91504
rclavicle 5.1684e-014 -7.31528e-014
rhumerus -10.1183 -2.12802 -53.3666
rradius 106.257
rwrist 50.0268
rhand -62.7091 -15.0538
rfingers 7.12502
rthumb -34.7269 -41.6732
lclavicle 5.1684e-014 -7.31528e-014
lhumerus -2.81355 -35.5935 93.2859
lradius 62.6107
lwrist -15.7148
lhand -35.3954 38.4353
lfingers 7.12502
lthumb -8.52637 -291.757
rfemur -29.5246 8.21396 6.96306
rtibia 33.8002
rfoot -11.2672 3.34908
rtoes 3.63167
lfemur -13.2022 5.57257 -18.985
ltibia 20.102
lfoot -1.27261 22.4923
ltoes -28.0672
2652
root -1.88155 17.9661 0.628347 9.98227 -13.0064 7.87391
lowerback 8.94183 -4.04031 -1.9455
upperback 3.50877 -5.43817 6.10423
thorax -0.548837 -2.81471 7.98038
lowerneck -22.7353 -0.839533 -9.58902
upperneck 26.7041 1.48495 2.73523
head 12.593 0.0148128 2.91286
rclavicle 4.69132e-014 -1.74931e-014
rhumerus -10.6699 -0.814284 -53.6429
rradius 106.368
rwrist 51.4028
rhand -62.4588 -15.2797
rfingers 7.12502
rthumb -34.4894 -41.9534
lclavicle 4.69132e-014 -1.74931e-014
lhumerus -1.3727 -36.4762 93.3681
lradius 62.4219
lwrist -16.1376
lhand -35.4769 39.024
lfingers 7.12502
lthumb -8.60505 -291.171
rfemur -29.4907 8.3142 6.84816
rtibia 33.8347
rfoot -11.2378 3.51886
rtoes 3.87275
lfemur -13.069 5.62184 -19.1253
ltibia 20.1299
lfoot -1.33736 22.6923
ltoes -28.0114
2653
root -1.88578 17.9669 0.639012 9.8977 -13.3643 7.90167
lowerback 8.79566 -4.16416 -2.00586
upperback 3.62701 -5.61623 6.27797
thorax -0.291953 -2.91953 8.19484
lowerneck -22.9483 -0.575833 -9.64204
upperneck 26.6103 1.96561 2.54055
head 12.5659 0.197324 2.92653
rclavicle -4.77083e-014 2.54444e-014
rhumerus -11.002 0.528672 -53.8306
rradius 106.489
rwrist 52.857
rhand -61.8429 -17.0468
rfingers 7.12502
rthumb -33.9045 -43.8517
lclavicle -4.77083e-014 2.54444e-014
lhumerus 0.48947 -37.3519 93.1726
lradius 62.238
lwrist -16.4481
lhand -34.7225 39.0667
lfingers 7.12502
lthumb -7.87692 -291.1
rfemur -29.4957 8.53823 6.80974
rtibia 33.8691
rfoot -11.1686 3.61501
rtoes 3.77949
lfemur -12.8949 5.74552 -19.1956
ltibia 20.1163
lfoot -1.30943 22.9484
ltoes -28.2224
2654
root -1.88647 17.9676 0.650774 9.91418 -13.762 7.90328
lowerback 8.43411 -4.26087 -1.98021
upperback 3.79421 -5.75829 6.41712
thorax 0.117667 -3.01043 8.29605
lowerneck -23.1717 -0.310761 -9.5744
upperneck 26.4721 2.38803 2.3936
head 12.5273 0.375371 2.92819
rclavicle -2.38542e-015 3.02153e-014
rhumerus -11.2927 1.82572 -53.9665
rradius 106.458
rwrist 53.8994
rhand -61.2869 -17.7484
rfingers 7.12502
rthumb -33.3761 -44.6685
lclavicle -2.38542e-015 3.02153e-014
lhumerus 2.55873 -38.3565 92.7708
lradius 61.8915
lwrist -17.1433
lhand -34.4964 39.1418
lfingers 7.12502
lthumb -7.65875 -291.017
rfemur -29.6039 8.74295 6.76356
rtibia 33.8879
rfoot -11.1276 3.73757
rtoes 3.64576
lfemur -12.7944 5.85498 -19.2521
ltibia 20.0986
lfoot -1.41304 23.2547
ltoes -27.9131
2655
root -1.88561 17.9705 0.662215 9.98616 -14.0968 7.99329
lowerback 8.11482 -4.40752 -1.97311
upperback 3.82755 -5.96193 6.5057
thorax 0.370627 -3.12346 8.36626
lowerneck -23.3093 0.0638587 -9.2775
upperneck 26.3908 2.92392 2.06463
head 12.4947 0.599159 2.8411
rclavicle 3.18055e-014 -2.70347e-014
rhumerus -11.6977 3.31519 -54.1235
rradius 106.226
rwrist 54.4927
rhand -60.6262 -17.2432
rfingers 7.12502
rthumb -32.7478 -44.2963
lclavicle 3.18055e-014 -2.70347e-014
lhumerus 4.393 -39.3701 92.4429
lradius 61.305
lwrist -18.0355
lhand -34.5931 39.7041
lfingers 7.12502
lthumb -7.75204 -290.458
rfemur -29.7735 8.90711 6.60499
rtibia 33.8976
rfoot -11.1218 3.83817
rtoes 3.63997
lfemur -12.7955 5.93946 -19.4103
ltibia 20.0892
lfoot -1.55002 23.5329
ltoes -27.6894
2656
root -1.88508 17.9713 0.672505 10.0355 -14.4001 8.04379
lowerback 7.98 -4.56328 -1.95878
upperback 3.76037 -6.1693 6.6464
thorax 0.423701 -3.23117 8.51111
lowerneck -23.4627 0.446304 -9.01272
upperneck 26.4385 3.5072 1.66883
head 12.5203 0.824913 2.74556
rclavicle -4.21423e-014 6.36111e-015
rhumerus -12.0715 4.91451 -54.3151
rradius 105.748
rwrist 55.083
rhand -60.1093 -16.8405
rfingers 7.12502
rthumb -32.2558 -43.9948
lclavicle -4.21423e-014 6.36111e-015
lhumerus 6.01556 -40.3971 92.2523
lradius 60.7336
lwrist -18.7873
lhand -34.0815 39.9717
lfingers 7.12502
lthumb -7.25823 -290.173
rfemur -29.8917 9.03104 6.51134
rtibia 33.9061
rfoot -11.1001 3.95728
rtoes 3.67313
lfemur -12.7756 6.07125 -19.5289
ltibia 20.0783
lfoot -1.57069 23.7276
ltoes -27.6963
2657
root -1.88436 17.9697 0.683017 10.0181 -14.7894 8.09946
lowerback 7.9752 -4.67916 -2.0242
upperback 3.67909 -6.32683 6.83725
thorax 0.398729 -3.31415 8.76754
lowerneck -23.5578 0.745742 -8.96142
upperneck 26.5102 4.01489 1.37906
head 12.5465 1.00885 2.71335
rclavicle 4.13472e-014 -7.95139e-015
rhumerus -12.3879 6.61154 -54.3953
rradius 105.084
rwrist 55.4291
rhand -59.7242 -16.7718
rfingers 7.12502
rthumb -31.8893 -43.9999
lclavicle 4.13472e-014 -7.95139e-015
lhumerus 7.61458 -41.4063 92.1445
lradius 60.1457
lwrist -19.3186
lhand -33.5689 40.1732
lfingers 7.12502
lthumb -6.76342 -289.955
rfemur -29.9785 9.23614 6.39936
rtibia 33.9128
rfoot -11.0551 4.11173
rtoes 3.73546
lfemur -12.6895 6.22117 -19.6578
ltibia 20.0795
lfoot -1.54718 23.981
ltoes -27.9001
2658
root -1.88227 17.9693 0.691719 9.95395 -15.1267 8.11224
lowerback 8.06953 -4.91088 -2.10884
upperback 3.6544 -6.64121 6.97619
thorax 0.402795 -3.47819 8.99367
lowerneck -23.6327 1.22517 -8.6063
upperneck 26.4477 4.68176 1.0022
head 12.5157 1.2882 2.62079
rclavicle -2.54444e-014 2.54444e-014
rhumerus -12.4105 8.48383 -54.6645
rradius 104.313
rwrist 55.8284
rhand -59.1442 -17.2415
rfingers 7.12502
rthumb -31.3368 -44.5782
lclavicle -2.54444e-014 2.54444e-014
lhumerus 9.46638 -42.2507 91.5246
lradius 59.3638
lwrist -20.0685
lhand -33.4018 40.9444
lfingers 7.12502
lthumb -6.60213 -289.179
rfemur -30.0059 9.45586 6.34941
rtibia 33.918
rfoot -11.0019 4.23156
rtoes 3.63145
lfemur -12.5775 6.4217 -19.726
ltibia 20.1028
lfoot -1.45898 24.1166
ltoes -28.222
2659
root -1.87714 17.9702 0.701655 10.0177 -15.3555 8.0992
lowerback 7.96974 -5.30103 -2.19066
upperback 3.74035 -7.17643 7.0588
thorax 0.663603 -3.76387 9.13702
lowerneck -23.9489 2.03825 -7.6889
upperneck 26.2856 5.71191 0.353821
head 12.5052 1.74939 2.39715
rclavicle 8.11041e-014 1.27222e-014
rhumerus -11.9673 10.4 -55.1908
rradius 103.353
rwrist 56.3124
rhand -58.5139 -17.2167
rfingers 7.12502
rthumb -30.736 -44.6681
lclavicle 8.11041e-014 1.27222e-014
lhumerus 11.6522 -42.808 90.2235
lradius 58.6074
lwrist -21.1564
lhand -32.6616 41.127
lfingers 7.12502
lthumb -5.88749 -288.975
rfemur -30.1217 9.55652 6.31204
rtibia 33.9131
rfoot -10.9705 4.32559
rtoes 3.90008
lfemur -12.6167 6.50205 -19.7607
ltibia 20.1396
lfoot -1.38195 24.2524
ltoes -28.3202
2660
root -1.87046 17.9705 0.713575 10.0954 -15.6873 8.21666
lowerback 7.54724 -5.58686 -2.1257
upperback 3.95628 -7.57341 6.94077
thorax 1.16666 -3.98144 8.92174
lowerneck -24.3553 2.70401 -6.87476
upperneck 26.1335 6.46902 0.0509718
head 12.5251 2.12655 2.28233
rclavicle -3.97569e-015 -6.20208e-014
rhumerus -11.5716 11.8661 -55.7715
rradius 102.198
rwrist 56.9321
rhand -57.951 -17.4942
rfingers 7.12502
rthumb -30.1991 -45.0452
lclavicle -3.97569e-015 -6.20208e-014
lhumerus 14.1472 -43.7394 88.5101
lradius 57.8754
lwrist -22.0028
lhand -31.6054 40.9082
lfingers 7.12502
lthumb -4.86771 -289.168
rfemur -30.2965 9.62305 6.11139
rtibia 33.9116
rfoot -10.9548 4.54394
rtoes 4.18924
lfemur -12.6957 6.62912 -19.9715
ltibia 20.1926
lfoot -1.35612 24.4169
ltoes -28.3961
